<?xml version="1.0" encoding="iso-8859-1"?>
<!-- Generator: Adobe Illustrator 19.0.0, SVG Export Plug-In . SVG Version: 6.00 Build 0)  -->
<svg version="1.1" id="Capa_1" xmlns="http://www.w3.org/2000/svg" xmlns:xlink="http://www.w3.org/1999/xlink" x="0px" y="0px"
	 viewBox="0 0 512 512" style="enable-background:new 0 0 512 512;" xml:space="preserve">
<path style="fill:#28384C;" d="M361.887,512H150.113c-9.772,0-17.699-7.927-17.699-17.699V17.699C132.414,7.927,140.341,0,150.113,0
	h211.774c9.772,0,17.699,7.927,17.699,17.699v476.601C379.586,504.073,371.659,512,361.887,512z"/>
<circle style="fill:#DD352E;" cx="256" cy="97.103" r="61.793"/>
<circle style="fill:#23A24D;" cx="256" cy="414.897" r="61.793"/>
<circle style="fill:#EBBA16;" cx="256" cy="256" r="61.793"/>
<path style="fill:#B02721;" d="M256,132.414c-4.873,0-8.828-3.955-8.828-8.828s3.955-8.828,8.828-8.828
	c9.737,0,17.655-7.918,17.655-17.655S265.737,79.448,256,79.448c-9.737,0-17.655,7.918-17.655,17.655
	c0,4.873-3.955,8.828-8.828,8.828s-8.828-3.955-8.828-8.828c0-19.474,15.837-35.31,35.31-35.31s35.31,15.837,35.31,35.31
	S275.474,132.414,256,132.414z"/>
<path style="fill:#187F38;" d="M256,450.207c-4.873,0-8.828-3.955-8.828-8.828s3.955-8.828,8.828-8.828
	c9.737,0,17.655-7.918,17.655-17.655c0-9.737-7.918-17.655-17.655-17.655c-9.737,0-17.655,7.918-17.655,17.655
	c0,4.873-3.955,8.828-8.828,8.828s-8.828-3.955-8.828-8.828c0-19.474,15.837-35.31,35.31-35.31s35.31,15.837,35.31,35.31
	S275.474,450.207,256,450.207z"/>
<path style="fill:#C69817;" d="M256,291.31c-19.474,0-35.31-15.837-35.31-35.31s15.837-35.31,35.31-35.31
	c4.873,0,8.828,3.955,8.828,8.828s-3.955,8.828-8.828,8.828c-9.737,0-17.655,7.918-17.655,17.655
	c0,9.737,7.918,17.655,17.655,17.655c9.737,0,17.655-7.918,17.655-17.655c0-4.873,3.955-8.828,8.828-8.828s8.828,3.955,8.828,8.828
	C291.31,275.474,275.474,291.31,256,291.31z"/>
<g>
	<path style="fill:#41566D;" d="M485.517,70.621c0,29.272-23.693,52.966-52.966,52.966h-8.828
		c-24.399,0-44.138,19.738-44.138,44.138V70.621H485.517L485.517,70.621z"/>
	<path style="fill:#41566D;" d="M485.517,229.517c0,29.272-23.693,52.966-52.966,52.966h-8.828
		c-24.399,0-44.138,19.738-44.138,44.138v-97.103H485.517L485.517,229.517z"/>
	<path style="fill:#41566D;" d="M485.517,388.414c0,29.272-23.693,52.966-52.966,52.966h-8.828
		c-24.399,0-44.138,19.738-44.138,44.138v-97.103H485.517L485.517,388.414z"/>
	<path style="fill:#41566D;" d="M26.483,70.621h105.931v97.103c0-24.399-19.738-44.138-44.138-44.138h-8.828
		C50.176,123.586,26.483,99.893,26.483,70.621L26.483,70.621z"/>
	<path style="fill:#41566D;" d="M26.483,229.517h105.931v97.103c0-24.399-19.738-44.138-44.138-44.138h-8.828
		C50.176,282.483,26.483,258.79,26.483,229.517L26.483,229.517z"/>
	<path style="fill:#41566D;" d="M26.483,388.414h105.931v97.103c0-24.399-19.738-44.138-44.138-44.138h-8.828
		C50.176,441.379,26.483,417.686,26.483,388.414L26.483,388.414z"/>
</g>
<g>
</g>
<g>
</g>
<g>
</g>
<g>
</g>
<g>
</g>
<g>
</g>
<g>
</g>
<g>
</g>
<g>
</g>
<g>
</g>
<g>
</g>
<g>
</g>
<g>
</g>
<g>
</g>
<g>
</g>
</svg>
