<?xml version="1.0" encoding="iso-8859-1"?>
<!-- Generator: Adobe Illustrator 19.0.0, SVG Export Plug-In . SVG Version: 6.00 Build 0)  -->
<svg version="1.1" id="Capa_1" xmlns="http://www.w3.org/2000/svg" xmlns:xlink="http://www.w3.org/1999/xlink" x="0px" y="0px"
	 viewBox="0 0 512 512" style="enable-background:new 0 0 512 512;" xml:space="preserve">
<g>
	<g>
		<path d="M358.357,0H153.643C139.503,0,128,11.503,128,25.643v460.715c0,14.14,11.503,25.643,25.643,25.643h204.715
			c14.14,0,25.643-11.503,25.643-25.643V25.643C384,11.503,372.497,0,358.357,0z M366.933,486.357c0,4.727-3.849,8.576-8.576,8.576
			H153.643c-4.727,0-8.576-3.849-8.576-8.576V25.643c0-4.727,3.849-8.576,8.576-8.576h204.715c4.727,0,8.576,3.849,8.576,8.576
			V486.357z"/>
	</g>
</g>
<g>
	<g>
		<path d="M256,34.133c-37.641,0-68.267,30.626-68.267,68.267c0,37.641,30.626,68.267,68.267,68.267s68.267-30.626,68.267-68.267
			C324.267,64.759,293.641,34.133,256,34.133z M256,153.6c-28.228,0-51.2-22.963-51.2-51.2c0-28.237,22.972-51.2,51.2-51.2
			s51.2,22.963,51.2,51.2C307.2,130.637,284.228,153.6,256,153.6z"/>
	</g>
</g>
<g>
	<g>
		<path d="M256,341.333c-37.641,0-68.267,30.626-68.267,68.267c0,37.641,30.626,68.267,68.267,68.267s68.267-30.626,68.267-68.267
			C324.267,371.959,293.641,341.333,256,341.333z M256,460.8c-28.228,0-51.2-22.963-51.2-51.2c0-28.237,22.972-51.2,51.2-51.2
			s51.2,22.963,51.2,51.2C307.2,437.837,284.228,460.8,256,460.8z"/>
	</g>
</g>
<g>
	<g>
		<path d="M256,187.733c-37.641,0-68.267,30.626-68.267,68.267c0,37.641,30.626,68.267,68.267,68.267s68.267-30.626,68.267-68.267
			C324.267,218.359,293.641,187.733,256,187.733z M256,307.2c-28.228,0-51.2-22.963-51.2-51.2s22.972-51.2,51.2-51.2
			s51.2,22.963,51.2,51.2C307.2,284.237,284.228,307.2,256,307.2z"/>
	</g>
</g>
<g>
	<g>
		<path d="M256,68.267c-18.825,0-34.133,15.309-34.133,34.133c0,4.71,3.823,8.533,8.533,8.533c4.71,0,8.533-3.823,8.533-8.533
			c0-9.412,7.654-17.067,17.067-17.067c9.412,0,17.067,7.654,17.067,17.067c0,9.412-7.654,17.067-17.067,17.067
			c-4.71,0-8.533,3.823-8.533,8.533s3.823,8.533,8.533,8.533c18.825,0,34.133-15.309,34.133-34.133
			C290.133,83.575,274.825,68.267,256,68.267z"/>
	</g>
</g>
<g>
	<g>
		<path d="M256,375.467c-18.825,0-34.133,15.309-34.133,34.133c0,4.71,3.823,8.533,8.533,8.533c4.71,0,8.533-3.823,8.533-8.533
			c0-9.412,7.654-17.067,17.067-17.067c9.412,0,17.067,7.654,17.067,17.067c0,9.412-7.654,17.067-17.067,17.067
			c-4.71,0-8.533,3.823-8.533,8.533s3.823,8.533,8.533,8.533c18.825,0,34.133-15.309,34.133-34.133
			C290.133,390.775,274.825,375.467,256,375.467z"/>
	</g>
</g>
<g>
	<g>
		<path d="M281.6,247.467c-4.71,0-8.533,3.823-8.533,8.533c0,9.412-7.654,17.067-17.067,17.067c-9.412,0-17.067-7.654-17.067-17.067
			c0-9.412,7.654-17.067,17.067-17.067c4.71,0,8.533-3.823,8.533-8.533s-3.823-8.533-8.533-8.533
			c-18.825,0-34.133,15.309-34.133,34.133c0,18.825,15.309,34.133,34.133,34.133s34.133-15.309,34.133-34.133
			C290.133,251.29,286.31,247.467,281.6,247.467z"/>
	</g>
</g>
<g>
	<g>
		<path d="M477.867,68.267h-102.4c-4.71,0-8.533,3.823-8.533,8.533v93.867c0,4.71,3.823,8.533,8.533,8.533s8.533-3.823,8.533-8.533
			c0-18.825,15.309-34.133,34.133-34.133h8.533c32.939,0,59.733-26.795,59.733-59.733C486.4,72.09,482.577,68.267,477.867,68.267z
			 M426.667,119.467h-8.533c-13.099,0-25.071,4.949-34.133,13.073V85.333h84.48C464.512,104.781,447.275,119.467,426.667,119.467z"
			/>
	</g>
</g>
<g>
	<g>
		<path d="M477.867,221.867h-102.4c-4.71,0-8.533,3.823-8.533,8.533v93.867c0,4.71,3.823,8.533,8.533,8.533s8.533-3.823,8.533-8.533
			c0-18.825,15.309-34.133,34.133-34.133h8.533c32.939,0,59.733-26.795,59.733-59.733C486.4,225.69,482.577,221.867,477.867,221.867
			z M426.667,273.067h-8.533c-13.099,0-25.071,4.949-34.133,13.073v-47.206h84.48C464.512,258.381,447.275,273.067,426.667,273.067z
			"/>
	</g>
</g>
<g>
	<g>
		<path d="M477.867,375.467h-102.4c-4.71,0-8.533,3.823-8.533,8.533v93.867c0,4.71,3.823,8.533,8.533,8.533s8.533-3.823,8.533-8.533
			c0-18.825,15.309-34.133,34.133-34.133h8.533c32.939,0,59.733-26.795,59.733-59.733C486.4,379.29,482.577,375.467,477.867,375.467
			z M426.667,426.667h-8.533c-13.099,0-25.071,4.949-34.133,13.073v-47.206h84.48C464.512,411.981,447.275,426.667,426.667,426.667z
			"/>
	</g>
</g>
<g>
	<g>
		<path d="M136.533,68.267h-102.4c-4.71,0-8.533,3.823-8.533,8.533c0,32.939,26.795,59.733,59.733,59.733h8.533
			c18.825,0,34.133,15.309,34.133,34.133c0,4.71,3.823,8.533,8.533,8.533s8.533-3.823,8.533-8.533V76.8
			C145.067,72.09,141.244,68.267,136.533,68.267z M128,132.54c-9.062-8.124-21.035-13.073-34.133-13.073h-8.533
			c-20.608,0-37.845-14.686-41.813-34.133H128V132.54z"/>
	</g>
</g>
<g>
	<g>
		<path d="M136.533,221.867h-102.4c-4.71,0-8.533,3.823-8.533,8.533c0,32.939,26.795,59.733,59.733,59.733h8.533
			c18.825,0,34.133,15.309,34.133,34.133c0,4.71,3.823,8.533,8.533,8.533s8.533-3.823,8.533-8.533V230.4
			C145.067,225.69,141.244,221.867,136.533,221.867z M128,286.14c-9.062-8.124-21.035-13.073-34.133-13.073h-8.533
			c-20.608,0-37.845-14.686-41.813-34.133H128V286.14z"/>
	</g>
</g>
<g>
	<g>
		<path d="M136.533,375.467h-102.4c-4.71,0-8.533,3.823-8.533,8.533c0,32.939,26.795,59.733,59.733,59.733h8.533
			c18.825,0,34.133,15.309,34.133,34.133c0,4.71,3.823,8.533,8.533,8.533s8.533-3.823,8.533-8.533V384
			C145.067,379.29,141.244,375.467,136.533,375.467z M128,439.74c-9.062-8.124-21.035-13.073-34.133-13.073h-8.533
			c-20.608,0-37.845-14.686-41.813-34.133H128V439.74z"/>
	</g>
</g>
<g>
</g>
<g>
</g>
<g>
</g>
<g>
</g>
<g>
</g>
<g>
</g>
<g>
</g>
<g>
</g>
<g>
</g>
<g>
</g>
<g>
</g>
<g>
</g>
<g>
</g>
<g>
</g>
<g>
</g>
</svg>
